<svg xmlns="http://www.w3.org/2000/svg" viewBox="0 0 100 100" width="100" height="100">
  <defs>
    <linearGradient id="goldGradient" x1="0%" y1="0%" x2="100%" y2="100%">
      <stop offset="0%" style="stop-color:#D4AF37;stop-opacity:1" />
      <stop offset="50%" style="stop-color:#FFD700;stop-opacity:1" />
      <stop offset="100%" style="stop-color:#B8860B;stop-opacity:1" />
    </linearGradient>
  </defs>
  
  <!-- Background circle -->
  <circle cx="50" cy="50" r="48" fill="none" stroke="url(#goldGradient)" stroke-width="2"/>
  
  <!-- Floral motif - 6 petals radiating from center -->
  <g fill="none" stroke="url(#goldGradient)" stroke-width="1.5" stroke-linecap="round">
    <!-- Petal 1 (top) -->
    <path d="M50 20 Q45 15 40 20 Q45 25 50 20"/>
    
    <!-- Petal 2 (top-right) -->
    <path d="M70 30 Q75 25 70 20 Q65 25 70 30"/>
    
    <!-- Petal 3 (bottom-right) -->
    <path d="M70 70 Q75 75 70 80 Q65 75 70 70"/>
    
    <!-- Petal 4 (bottom) -->
    <path d="M50 80 Q45 85 40 80 Q45 75 50 80"/>
    
    <!-- Petal 5 (bottom-left) -->
    <path d="M30 70 Q25 75 30 80 Q35 75 30 70"/>
    
    <!-- Petal 6 (top-left) -->
    <path d="M30 30 Q25 25 30 20 Q35 25 30 30"/>
  </g>
  
  <!-- Center dot -->
  <circle cx="50" cy="50" r="3" fill="url(#goldGradient)"/>
</svg>
